<svg height="100%" stroke-miterlimit="10"
  style="fill-rule:nonzero;clip-rule:evenodd;stroke-linecap:round;stroke-linejoin:round;"
  version="1.1" viewBox="0 0 1024 1024" width="100%" xml:space="preserve"
  xmlns="http://www.w3.org/2000/svg" xmlns:xlink="http://www.w3.org/1999/xlink">
<path d="M43 546.356C29 546.356 20.3333 547.023 17 548.357C13.6667 549.691 10.3333 552.36 7 556.362C3.66667 560.365 1.66667 566.369 1 574.374C0.333333 582.379 3.33333 589.717 10 596.388C16.6667 603.059 46.3333 606.395 99 606.395C125.333 606.395 151.667 606.395 178 606.395C172 615.734 166 625.074 160 634.413C148 653.092 140 669.102 136 682.444C132 695.786 129.667 706.46 129 714.465C128.333 722.47 106.667 748.154 64 791.515C21.3333 834.877 8.43769e-15 859.56 8.43769e-15 865.564C8.43769e-15 871.567 1 876.571 3 880.573C5 884.576 29 909.259 75 954.621C121 999.984 148 1023 156 1023.67C164 1024.33 169.333 1024 172 1022.67C174.667 1021.33 196.667 999.651 238 957.623C279.333 915.596 344.667 889.913 434 880.573C523.333 871.234 572.667 865.23 582 862.562C591.333 859.893 635 826.872 713 763.497C791 700.122 832.333 663.432 837 653.425C841.667 643.419 844 633.079 844 622.405C844 617.068 844 611.732 844 606.395C870.667 606.395 897.333 606.395 924 606.395C977.333 606.395 1007.33 603.059 1014 596.388C1020.67 589.717 1024 583.38 1024 577.376C1024 571.372 1022 565.368 1018 559.364C1014 553.36 1003 549.358 985 547.356C967 545.355 57 546.356 43 546.356ZM370 607.395C408.667 608.063 430.667 610.397 436 614.4C441.333 618.403 445 623.739 447 630.41C449 637.081 448.333 644.753 445 653.425C441.667 662.098 437.333 667.768 432 670.436C426.667 673.105 405.333 674.439 368 674.439C330.667 674.439 310.333 675.106 307 676.44C303.667 677.775 300 681.11 296 686.447C292 691.784 289.667 696.787 289 701.457C288.333 706.126 290 712.13 294 719.468C298 726.807 302.667 731.476 308 733.478C313.333 735.479 354.667 736.479 432 736.479C509.333 736.479 551 735.145 557 732.477C563 729.808 583.667 713.798 619 684.446C654.333 655.093 677.333 637.081 688 630.41C698.667 623.739 709 618.736 719 615.401C729 612.065 740 609.73 752 608.396C764 607.062 771.667 607.062 775 608.396C778.333 609.73 780.667 613.066 782 618.403C783.333 623.739 747.667 656.094 675 715.466C602.333 774.838 517.667 809.861 421 820.534C324.333 831.208 256 855.557 216 893.582C196 912.594 176 931.607 156 950.619C142.333 936.276 128.667 921.934 115 907.591C101.333 893.248 87.6667 878.906 74 864.563C92.3333 846.551 110.667 828.539 129 810.528C165.667 774.504 185.667 746.82 189 727.474C192.333 708.128 197.333 691.784 204 678.442C210.667 665.1 220.333 652.758 233 641.418C245.667 630.077 257.667 622.072 269 617.402C280.333 612.732 290.333 609.73 299 608.396C307.667 607.062 331.333 606.728 370 607.395ZM504 606.395C522.667 606.395 541.333 606.395 560 606.395C578.667 606.395 597.333 606.395 616 606.395C616 607.062 616 607.729 616 608.396C616 609.73 602.667 621.071 576 642.418C549.333 663.765 530.667 674.439 520 674.439C514.667 674.439 509.333 674.439 504 674.439C505 671.437 506 668.435 507 665.433C509 659.429 510 651.091 510 640.417C510 629.743 509 621.405 507 615.401C506 612.399 505 609.397 504 606.395Z" fill="#000000" fill-rule="nonzero" opacity="1" stroke="none"/>
<path d="M81.9643 59.2766L129.964 59.2766L129.964 528.918L81.9643 528.918L81.9643 59.2766Z" fill="#000000" fill-rule="nonzero" opacity="1" stroke="#000000" stroke-linecap="butt" stroke-linejoin="miter" stroke-width="1.245"/>
<path d="M207.117 113.399L255.117 113.399L255.117 528.918L207.117 528.918L207.117 113.399Z" fill="#000000" fill-rule="nonzero" opacity="1" stroke="#000000" stroke-linecap="butt" stroke-linejoin="miter" stroke-width="1.245"/>
<path d="M285.364 227.356L333.364 227.356L333.364 528.918L285.364 528.918L285.364 227.356Z" fill="#000000" fill-rule="nonzero" opacity="1" stroke="#000000" stroke-linecap="butt" stroke-linejoin="miter" stroke-width="1.245"/>
<path d="M384.433 504.396L432.433 504.396L432.433 528.918L384.433 528.918L384.433 504.396Z" fill="#000000" fill-rule="nonzero" opacity="1" stroke="#000000" stroke-linecap="butt" stroke-linejoin="miter" stroke-width="1.245"/>
<path d="M528.163 328.183L576.163 328.183L576.163 528.918L528.163 528.918L528.163 328.183Z" fill="#000000" fill-rule="nonzero" opacity="1" stroke="#000000" stroke-linecap="butt" stroke-linejoin="miter" stroke-width="1.245"/>
<path d="M697.426 481.654L745.426 481.654L745.426 528.918L697.426 528.918L697.426 481.654Z" fill="#000000" fill-rule="nonzero" opacity="1" stroke="#000000" stroke-linecap="butt" stroke-linejoin="miter" stroke-width="1.245"/>
<path d="M800.316 515.389L848.316 515.389L848.316 528.918L800.316 528.918L800.316 515.389Z" fill="#000000" fill-rule="nonzero" opacity="1" stroke="#000000" stroke-linecap="butt" stroke-linejoin="miter" stroke-width="1.245"/>
<path d="M901.27 491.278L949.27 491.278L949.27 528.918L901.27 528.918L901.27 491.278Z" fill="#000000" fill-rule="nonzero" opacity="1" stroke="#000000" stroke-linecap="butt" stroke-linejoin="miter" stroke-width="1.245"/>
</svg>
